<svg xmlns="http://www.w3.org/2000/svg" viewBox="195 0 400 180.28">
	<defs>
		<style>
			.cls-1 {
				fill: #e2e8ed;
			}

			.cls-2 {
				fill: #fff;
			}

			.cls-3 {
				fill: #939598;
			}

			.cls-4 {
				fill: #0a4a72;
			}
		</style>
	</defs>
	<g id="B">
		<path class="cls-1"
			d="M214.69,59.4a24.26,24.26,0,0,1,24.23-24.22H430.08a.76.76,0,0,1,.75.86v78.38a24.23,24.23,0,0,1-24.23,24.12H226.94L201,151.35a.79.79,0,0,1-.86-.86l14.53-27.58Z" />
		<path class="cls-2"
			d="M201.48,153.35H201a2.8,2.8,0,0,1-2.86-2.86V150l14.53-27.58v-63a26.26,26.26,0,0,1,26.23-26.22H430.08A2.74,2.74,0,0,1,432.83,36v78.38a26.2,26.2,0,0,1-26.23,26.12H227.4ZM238.92,37.18A22.26,22.26,0,0,0,216.69,59.4v64l-12.8,24.29,22.58-11.16H406.6a22.2,22.2,0,0,0,22.23-22.12V37.18Z" />
		<path class="cls-3"
			d="M394.48,168.33a1.5,1.5,0,0,1-1.5-1.5v-3a1.5,1.5,0,0,1,3,0v3A1.5,1.5,0,0,1,394.48,168.33Zm0-13a1.5,1.5,0,0,1-1.5-1.5v-10a1.5,1.5,0,0,1,3,0v10A1.5,1.5,0,0,1,394.48,155.35Zm0-20a1.5,1.5,0,0,1-1.5-1.5v-10a1.5,1.5,0,0,1,3,0v10A1.5,1.5,0,0,1,394.48,135.35Zm0-20a1.5,1.5,0,0,1-1.5-1.5v-10a1.5,1.5,0,0,1,3,0v10A1.5,1.5,0,0,1,394.48,115.35Zm0-20a1.5,1.5,0,0,1-1.5-1.5v-10a1.5,1.5,0,0,1,3,0v10A1.5,1.5,0,0,1,394.48,95.35Zm0-20a1.5,1.5,0,0,1-1.5-1.5v-10a1.5,1.5,0,0,1,3,0v10A1.5,1.5,0,0,1,394.48,75.35Z" />
		<path class="cls-3" d="M390.53,166.63a4,4,0,1,0,4-3.95A4,4,0,0,0,390.53,166.63Z" />
		<path class="cls-4"
			d="M523.86,35.55A25.89,25.89,0,0,0,498,9.7H278.51a.82.82,0,0,0-.81.92V94.26A25.87,25.87,0,0,0,303.55,120H510.79l27.66,13.67a.85.85,0,0,0,.92-.92l-15.51-29.43Z" />
		<path class="cls-2"
			d="M498,9.7a25.89,25.89,0,0,1,25.85,25.85v67.76l15.51,29.43a.85.85,0,0,1-.92.92L510.79,120H303.55A25.87,25.87,0,0,1,277.7,94.26V10.62a.82.82,0,0,1,.81-.92H498m0-4H278.51a4.81,4.81,0,0,0-4.81,4.92V94.26A29.83,29.83,0,0,0,303.55,124H509.86l26.82,13.25a4,4,0,0,0,1.77.42,4.82,4.82,0,0,0,4.92-4.92,4.07,4.07,0,0,0-.46-1.87l-15-28.55V35.55A29.88,29.88,0,0,0,498,5.7Z" />
		<path class="cls-2"
			d="M319.45,64.92A13,13,0,0,1,322,66.08a6.94,6.94,0,0,1,1.61,1.34,4.64,4.64,0,0,1,.86,1.49,4.73,4.73,0,0,1,.27,1.58,5,5,0,0,1-.53,2.27,5.78,5.78,0,0,1-1.5,1.82,7.11,7.11,0,0,1-2.32,1.22,10,10,0,0,1-3,.43,13.09,13.09,0,0,1-3.17-.38,9.53,9.53,0,0,1-2.71-1.07l.17-4.12h2.32l.56,3.36a8.08,8.08,0,0,0,1.32.49,5.66,5.66,0,0,0,1.48.18,4.17,4.17,0,0,0,2.74-.81,2.64,2.64,0,0,0,1-2.16,2.13,2.13,0,0,0-.68-1.68,7,7,0,0,0-2.2-1.17l-1.37-.51A9.67,9.67,0,0,1,312.88,66a5,5,0,0,1-1.39-3.57,5,5,0,0,1,.47-2.16,4.64,4.64,0,0,1,1.34-1.69,6.54,6.54,0,0,1,2.13-1.12,9.18,9.18,0,0,1,2.84-.41,10.87,10.87,0,0,1,2.9.38,7.64,7.64,0,0,1,2.36,1.08l-.19,3.83H321l-.56-3.3a7.15,7.15,0,0,0-1.09-.34,5.6,5.6,0,0,0-1.09-.11,3.7,3.7,0,0,0-2.35.73,2.44,2.44,0,0,0-1,2.07,2.33,2.33,0,0,0,.79,1.85A7,7,0,0,0,318,64.42Z" />
		<path class="cls-2"
			d="M341.62,74.58v1.23l-5.15.28-.2-2.32a8.33,8.33,0,0,1-2.21,1.83,5.06,5.06,0,0,1-2.49.63A4.77,4.77,0,0,1,330,76a3,3,0,0,1-1.23-.87,4.1,4.1,0,0,1-.8-1.56,7.69,7.69,0,0,1-.25-2.35l.11-7.14-1.54-.28V62.65l5-.5.34.22-.14,4v4.31a4.89,4.89,0,0,0,.47,2.56,1.43,1.43,0,0,0,1.23.72,2.82,2.82,0,0,0,1.5-.48,8.92,8.92,0,0,0,1.5-1.18l.11-8.23-1.54-.28V62.71l5-.56.33.22-.08,4v7.89Z" />
		<path class="cls-2"
			d="M349.15,64.89a7.19,7.19,0,0,1,1.8-2.22,3.16,3.16,0,0,1,2-.8,2.44,2.44,0,0,1,1.22.36A2,2,0,0,1,355,63.6a2.09,2.09,0,0,1-.54,1.5,1.85,1.85,0,0,1-1.42.57,3,3,0,0,1-2.16-1.14l-.06-.06a8.22,8.22,0,0,0-.93,1.08,6.31,6.31,0,0,0-.75,1.39v5c0,.76,0,1.49,0,2.18l2.13.42v1.23h-7.7V74.58l1.71-.34q0-1,0-2.22V67.3c0-.28,0-.55,0-.8l0-.73c0-.23,0-.49,0-.77l-1.87-.25V63.69l5.06-1.82.42.28Z" />
		<path class="cls-2"
			d="M370.88,63.6l-1.76.31-5,12.18h-1.59l-5-12.18L356,63.6V62.37h7.64V63.6l-2,.4,2.8,7.72,3-7.81-1.74-.31V62.37h5.15Z" />
		<path class="cls-2"
			d="M375.64,69.23a5.37,5.37,0,0,0,1.22,3.66,3.81,3.81,0,0,0,2.84,1.16,3.47,3.47,0,0,0,2-.55A5.29,5.29,0,0,0,383.17,72l1,.53a4.85,4.85,0,0,1-2.11,2.8,6.83,6.83,0,0,1-3.66,1,7.93,7.93,0,0,1-2.77-.47,5.75,5.75,0,0,1-2.15-1.39,6.31,6.31,0,0,1-1.37-2.24,8.69,8.69,0,0,1-.49-3,7.81,7.81,0,0,1,.53-2.91,7.1,7.1,0,0,1,1.47-2.28,6.45,6.45,0,0,1,2.23-1.5,7.27,7.27,0,0,1,2.77-.53,6.4,6.4,0,0,1,2.42.43,5.15,5.15,0,0,1,3,3.1,6.76,6.76,0,0,1,.4,2.38,6.08,6.08,0,0,1-.16,1.45Zm3.39-1.4a1.85,1.85,0,0,0,1.39-.42,1.93,1.93,0,0,0,.37-1.31,3.35,3.35,0,0,0-.56-2.09,1.72,1.72,0,0,0-1.45-.74,2.36,2.36,0,0,0-1,.22,2.53,2.53,0,0,0-.94.76,4.87,4.87,0,0,0-.76,1.41,8.57,8.57,0,0,0-.43,2.17Z" />
		<path class="cls-2"
			d="M400.17,63.6l-1.79.31-4.51,12.26a16,16,0,0,1-2.21,4.36,3.64,3.64,0,0,1-3,1.44,4.83,4.83,0,0,1-1.08-.12,3,3,0,0,1-.91-.38,2.19,2.19,0,0,1-.63-.62,1.48,1.48,0,0,1-.24-.84,1.8,1.8,0,0,1,.7-1,2.18,2.18,0,0,1,1.18-.29,3,3,0,0,1,1,.16,3.28,3.28,0,0,1,1,.68l.48.42a7.44,7.44,0,0,0,1.08-1.26,11.11,11.11,0,0,0,.94-1.77l-5.27-13-1.59-.34V62.37H393V63.6l-2,.4L394,72l2.86-8.09-1.79-.34V62.37h5.12Z" />
		<path class="cls-2"
			d="M415.46,67.52a10,10,0,0,1,1.82.86,4.72,4.72,0,0,1,1.14,1,3.19,3.19,0,0,1,.59,1.14,4.75,4.75,0,0,1,.17,1.27,3.9,3.9,0,0,1-.42,1.82,4.1,4.1,0,0,1-1.2,1.4,5.88,5.88,0,0,1-1.88.91,8.89,8.89,0,0,1-2.46.32,9.06,9.06,0,0,1-2.57-.33,11.73,11.73,0,0,1-2.28-1V71.67h2.16l.36,2.43a5.13,5.13,0,0,0,1.19.52,4.3,4.3,0,0,0,1.14.16,3.43,3.43,0,0,0,2-.45,1.58,1.58,0,0,0,.63-1.37,1.63,1.63,0,0,0-.13-.69,1.36,1.36,0,0,0-.43-.55,4.88,4.88,0,0,0-.83-.5c-.34-.17-.78-.35-1.33-.56l-1.28-.5a6.09,6.09,0,0,1-2.54-1.67,3.78,3.78,0,0,1-.85-2.51,3.64,3.64,0,0,1,1.41-3,6.86,6.86,0,0,1,4.3-1.13,8,8,0,0,1,2.24.28,12.46,12.46,0,0,1,2,.78L418.23,66H416.1l-.42-2.32a5.64,5.64,0,0,0-.76-.25,3.23,3.23,0,0,0-.95-.12,2.62,2.62,0,0,0-1.62.47,1.49,1.49,0,0,0-.62,1.27,1.36,1.36,0,0,0,.53,1.09,4.06,4.06,0,0,0,.86.51c.36.16.82.34,1.38.53Z" />
		<path class="cls-2"
			d="M435.2,74.05a3.82,3.82,0,0,1-1.28,1.59,3.27,3.27,0,0,1-1.78.45,3.66,3.66,0,0,1-1.9-.45,2.48,2.48,0,0,1-1.06-1.17,8.21,8.21,0,0,1-1.84,1.31,4.81,4.81,0,0,1-2.2.45,4.18,4.18,0,0,1-2.73-.85,3.05,3.05,0,0,1-1.05-2.51,4,4,0,0,1,.21-1.27,3.25,3.25,0,0,1,.79-1.23,6.54,6.54,0,0,1,1.58-1.17,16.44,16.44,0,0,1,2.6-1.09c.32-.11.69-.23,1.12-.35l1.32-.38v-.84a4.59,4.59,0,0,0-.53-2.52,2.15,2.15,0,0,0-1.88-.75h-.43l-.44,0L425.48,65a2.73,2.73,0,0,1-.67,1.62,1.72,1.72,0,0,1-1.26.53,1.67,1.67,0,0,1-1.11-.39,1.79,1.79,0,0,1-.6-1A3.76,3.76,0,0,1,423.6,63a7.42,7.42,0,0,1,4.26-1.08,7.73,7.73,0,0,1,2.25.29,3.33,3.33,0,0,1,1.53,1,4.19,4.19,0,0,1,.87,1.74,11,11,0,0,1,.28,2.65v5.76A1.34,1.34,0,0,0,433,74a.57.57,0,0,0,.53.28.6.6,0,0,0,.45-.17l.39-.42.14-.16ZM429,68.59c-.35.09-.69.19-1,.29s-.58.2-.8.29a3.46,3.46,0,0,0-1.71,1.21A2.9,2.9,0,0,0,425,72a2.07,2.07,0,0,0,.16.9,1.91,1.91,0,0,0,.38.56,2.11,2.11,0,0,0,1.56.59,2.35,2.35,0,0,0,.87-.16,4.32,4.32,0,0,0,1-.57Z" />
		<path class="cls-2"
			d="M449.59,63.6l-1.79.31-4.51,12.26a16,16,0,0,1-2.21,4.36,3.64,3.64,0,0,1-3,1.44,4.77,4.77,0,0,1-1.08-.12,3,3,0,0,1-.91-.38,2.19,2.19,0,0,1-.63-.62,1.48,1.48,0,0,1-.24-.84,1.75,1.75,0,0,1,.7-1,2.18,2.18,0,0,1,1.18-.29,2.93,2.93,0,0,1,1,.16,3.21,3.21,0,0,1,1.05.68l.48.42a7.44,7.44,0,0,0,1.08-1.26,12,12,0,0,0,.94-1.77l-5.27-13-1.59-.34V62.37h7.64V63.6l-2,.4,2.94,8,2.86-8.09-1.8-.34V62.37h5.13Z" />
		<path class="cls-2"
			d="M458,67.52a10,10,0,0,1,1.82.86,4.72,4.72,0,0,1,1.14,1,3.19,3.19,0,0,1,.59,1.14,4.75,4.75,0,0,1,.17,1.27,3.9,3.9,0,0,1-.42,1.82,4.1,4.1,0,0,1-1.2,1.4,5.88,5.88,0,0,1-1.88.91,8.89,8.89,0,0,1-2.46.32,9,9,0,0,1-2.57-.33,11.73,11.73,0,0,1-2.28-1V71.67h2.16l.36,2.43a5.13,5.13,0,0,0,1.19.52,4.3,4.3,0,0,0,1.14.16,3.43,3.43,0,0,0,2-.45,1.58,1.58,0,0,0,.63-1.37,1.63,1.63,0,0,0-.13-.69,1.36,1.36,0,0,0-.43-.55,4.88,4.88,0,0,0-.83-.5c-.34-.17-.78-.35-1.33-.56l-1.28-.5a6.09,6.09,0,0,1-2.54-1.67A3.78,3.78,0,0,1,451,66a3.64,3.64,0,0,1,1.41-3,6.86,6.86,0,0,1,4.3-1.13,8,8,0,0,1,2.24.28,12.83,12.83,0,0,1,2,.78L460.79,66h-2.13l-.42-2.32a5.64,5.64,0,0,0-.76-.25,3.23,3.23,0,0,0-1-.12,2.62,2.62,0,0,0-1.62.47,1.49,1.49,0,0,0-.62,1.27,1.52,1.52,0,0,0,.11.57,1.51,1.51,0,0,0,.42.52,4.06,4.06,0,0,0,.86.51c.36.16.82.34,1.38.53Z" />
		<path class="cls-2"
			d="M466.58,76.23a2.32,2.32,0,0,1-.92-.18,2.36,2.36,0,0,1-.74-.5,2.48,2.48,0,0,1-.51-.76,2.34,2.34,0,0,1-.18-.91,2.32,2.32,0,0,1,.69-1.68,2.33,2.33,0,0,1,3.33,0,2.32,2.32,0,0,1,.69,1.68,2.18,2.18,0,0,1-.19.91,2.45,2.45,0,0,1-.5.76,2.3,2.3,0,0,1-1.67.68Zm9.24,0a2.32,2.32,0,0,1-.92-.18,2.36,2.36,0,0,1-.74-.5,2.48,2.48,0,0,1-.51-.76,2.34,2.34,0,0,1-.18-.91,2.32,2.32,0,0,1,.69-1.68,2.33,2.33,0,0,1,3.33,0,2.32,2.32,0,0,1,.69,1.68,2.18,2.18,0,0,1-.19.91,2.45,2.45,0,0,1-.5.76,2.3,2.3,0,0,1-1.67.68Zm9.24,0a2.32,2.32,0,0,1-.92-.18,2.36,2.36,0,0,1-.74-.5,2.31,2.31,0,0,1-.51-.76,2.34,2.34,0,0,1-.18-.91,2.32,2.32,0,0,1,.69-1.68,2.33,2.33,0,0,1,3.33,0,2.32,2.32,0,0,1,.69,1.68,2.35,2.35,0,0,1-.19.91,2.45,2.45,0,0,1-.5.76,2.48,2.48,0,0,1-.74.5A2.34,2.34,0,0,1,485.06,76.23Z" />
	</g>
</svg>